{
    "asset" : {
        "generator" : "Khronos glTF Blender I/O v1.5.17",
        "version" : "2.0"
    },
    "scene" : 0,
    "scenes" : [
        {
            "name" : "Scene",
            "nodes" : [
                0,
                1,
                2,
                3
            ]
        }
    ],
    "nodes" : [
        {
            "name" : "Light",
            "rotation" : [
                0.16907575726509094,
                0.7558803558349609,
                -0.27217137813568115,
                0.570947527885437
            ],
            "translation" : [
                4.076245307922363,
                5.903861999511719,
                -1.0054539442062378
            ]
        },
        {
            "name" : "Camera",
            "rotation" : [
                0.483536034822464,
                0.33687159419059753,
                -0.20870360732078552,
                0.7804827094078064
            ],
            "translation" : [
                7.358891487121582,
                4.958309173583984,
                6.925790786743164
            ]
        },
        {
            "mesh" : 0,
            "name" : "Back_Piece_V2",
            "scale" : [
                0.0026039318181574345,
                0.019934656098484993,
                0.023263199254870415
            ],
            "translation" : [
                1.1536742448806763,
                0.02851155959069729,
                0.23048743605613708
            ]
        },
        {
            "mesh" : 1,
            "name" : "TV_V2",
            "rotation" : [
                0,
                0,
                -0.7071067094802856,
                0.7071068286895752
            ],
            "scale" : [
                0.014857933856546879,
                0.00817788578569889,
                0.014402028173208237
            ],
            "translation" : [
                1.1638091802597046,
                0.6207424402236938,
                0.2332327514886856
            ]
        }
    ],
    "materials" : [
        {
            "doubleSided" : true,
            "name" : "Grey.003",
            "pbrMetallicRoughness" : {
                "baseColorFactor" : [
                    0.05098039284348488,
                    0.05098039284348488,
                    0.05098039284348488,
                    1
                ],
                "metallicFactor" : 0,
                "roughnessFactor" : 0.5527864098548889
            }
        },
        {
            "doubleSided" : true,
            "name" : "White.006",
            "pbrMetallicRoughness" : {
                "metallicFactor" : 0,
                "roughnessFactor" : 0.5527864098548889
            }
        },
        {
            "doubleSided" : true,
            "name" : "BLACK.009",
            "pbrMetallicRoughness" : {
                "baseColorFactor" : [
                    0,
                    0,
                    0,
                    1
                ],
                "metallicFactor" : 0,
                "roughnessFactor" : 0.5527864098548889
            }
        },
        {
            "doubleSided" : true,
            "name" : "TrueGlass",
            "pbrMetallicRoughness" : {
                "baseColorFactor" : [
                    0.5,
                    0.5,
                    0.5,
                    0.3999999761581421
                ],
                "metallicFactor" : 0,
                "roughnessFactor" : 0.5527864098548889
            }
        },
        {
            "alphaMode" : "BLEND",
            "doubleSided" : true,
            "name" : "Material #472",
            "pbrMetallicRoughness" : {
                "baseColorTexture" : {
                    "index" : 0
                },
                "metallicFactor" : 0,
                "roughnessFactor" : 0.5527864098548889
            }
        }
    ],
    "meshes" : [
        {
            "name" : "Mesh.011",
            "primitives" : [
                {
                    "attributes" : {
                        "POSITION" : 0,
                        "NORMAL" : 1,
                        "TEXCOORD_0" : 2
                    },
                    "indices" : 3,
                    "material" : 0
                },
                {
                    "attributes" : {
                        "POSITION" : 4,
                        "NORMAL" : 5,
                        "TEXCOORD_0" : 6
                    },
                    "indices" : 7,
                    "material" : 1
                },
                {
                    "attributes" : {
                        "POSITION" : 8,
                        "NORMAL" : 9,
                        "TEXCOORD_0" : 10
                    },
                    "indices" : 11,
                    "material" : 2
                },
                {
                    "attributes" : {
                        "POSITION" : 12,
                        "NORMAL" : 13,
                        "TEXCOORD_0" : 14
                    },
                    "indices" : 15,
                    "material" : 3
                }
            ]
        },
        {
            "name" : "Mesh.012",
            "primitives" : [
                {
                    "attributes" : {
                        "POSITION" : 16,
                        "NORMAL" : 17,
                        "TEXCOORD_0" : 18
                    },
                    "indices" : 19,
                    "material" : 4
                },
                {
                    "attributes" : {
                        "POSITION" : 20,
                        "NORMAL" : 21,
                        "TEXCOORD_0" : 22
                    },
                    "indices" : 23,
                    "material" : 2
                }
            ]
        }
    ],
    "textures" : [
        {
            "sampler" : 0,
            "source" : 0
        }
    ],
    "images" : [
        {
            "bufferView" : 20,
            "mimeType" : "image/png",
            "name" : "Untitled-1"
        }
    ],
    "accessors" : [
        {
            "bufferView" : 0,
            "componentType" : 5126,
            "count" : 176,
            "max" : [
                9.397316932678223,
                52.95098876953125,
                38.21258544921875
            ],
            "min" : [
                -9.397315979003906,
                0,
                -38.21258544921875
            ],
            "type" : "VEC3"
        },
        {
            "bufferView" : 1,
            "componentType" : 5126,
            "count" : 176,
            "type" : "VEC3"
        },
        {
            "bufferView" : 2,
            "componentType" : 5126,
            "count" : 176,
            "type" : "VEC2"
        },
        {
            "bufferView" : 3,
            "componentType" : 5123,
            "count" : 432,
            "type" : "SCALAR"
        },
        {
            "bufferView" : 4,
            "componentType" : 5126,
            "count" : 272,
            "max" : [
                9.397316932678223,
                54.95098876953125,
                39.909873962402344
            ],
            "min" : [
                -9.397316932678223,
                0,
                -39.909881591796875
            ],
            "type" : "VEC3"
        },
        {
            "bufferView" : 5,
            "componentType" : 5126,
            "count" : 272,
            "type" : "VEC3"
        },
        {
            "bufferView" : 6,
            "componentType" : 5126,
            "count" : 272,
            "type" : "VEC2"
        },
        {
            "bufferView" : 7,
            "componentType" : 5123,
            "count" : 708,
            "type" : "SCALAR"
        },
        {
            "bufferView" : 8,
            "componentType" : 5126,
            "count" : 64,
            "max" : [
                9.397316932678223,
                45.00325012207031,
                38.21258544921875
            ],
            "min" : [
                -9.397315979003906,
                0,
                -38.21258544921875
            ],
            "type" : "VEC3"
        },
        {
            "bufferView" : 9,
            "componentType" : 5126,
            "count" : 64,
            "type" : "VEC3"
        },
        {
            "bufferView" : 10,
            "componentType" : 5126,
            "count" : 64,
            "type" : "VEC2"
        },
        {
            "bufferView" : 11,
            "componentType" : 5123,
            "count" : 180,
            "type" : "SCALAR"
        },
        {
            "bufferView" : 12,
            "componentType" : 5126,
            "count" : 16,
            "max" : [
                4.39731502532959,
                52.95098876953125,
                38.21258544921875
            ],
            "min" : [
                -4.397316932678223,
                45.950984954833984,
                -38.21258544921875
            ],
            "type" : "VEC3"
        },
        {
            "bufferView" : 13,
            "componentType" : 5126,
            "count" : 16,
            "type" : "VEC3"
        },
        {
            "bufferView" : 14,
            "componentType" : 5126,
            "count" : 16,
            "type" : "VEC2"
        },
        {
            "bufferView" : 15,
            "componentType" : 5123,
            "count" : 24,
            "type" : "SCALAR"
        },
        {
            "bufferView" : 16,
            "componentType" : 5126,
            "count" : 4,
            "max" : [
                16.125940322875977,
                3.6182241439819336,
                34.59397888183594
            ],
            "min" : [
                -16.125940322875977,
                3.6182241439819336,
                -34.59397888183594
            ],
            "type" : "VEC3"
        },
        {
            "bufferView" : 17,
            "componentType" : 5126,
            "count" : 4,
            "type" : "VEC3"
        },
        {
            "bufferView" : 18,
            "componentType" : 5126,
            "count" : 4,
            "type" : "VEC2"
        },
        {
            "bufferView" : 19,
            "componentType" : 5123,
            "count" : 6,
            "type" : "SCALAR"
        },
        {
            "bufferView" : 21,
            "componentType" : 5126,
            "count" : 40,
            "max" : [
                17.717655181884766,
                3.6182241439819336,
                36.185691833496094
            ],
            "min" : [
                -17.717655181884766,
                0,
                -36.185691833496094
            ],
            "type" : "VEC3"
        },
        {
            "bufferView" : 22,
            "componentType" : 5126,
            "count" : 40,
            "type" : "VEC3"
        },
        {
            "bufferView" : 23,
            "componentType" : 5126,
            "count" : 40,
            "type" : "VEC2"
        },
        {
            "bufferView" : 24,
            "componentType" : 5123,
            "count" : 78,
            "type" : "SCALAR"
        }
    ],
    "bufferViews" : [
        {
            "buffer" : 0,
            "byteLength" : 2112,
            "byteOffset" : 0
        },
        {
            "buffer" : 0,
            "byteLength" : 2112,
            "byteOffset" : 2112
        },
        {
            "buffer" : 0,
            "byteLength" : 1408,
            "byteOffset" : 4224
        },
        {
            "buffer" : 0,
            "byteLength" : 864,
            "byteOffset" : 5632
        },
        {
            "buffer" : 0,
            "byteLength" : 3264,
            "byteOffset" : 6496
        },
        {
            "buffer" : 0,
            "byteLength" : 3264,
            "byteOffset" : 9760
        },
        {
            "buffer" : 0,
            "byteLength" : 2176,
            "byteOffset" : 13024
        },
        {
            "buffer" : 0,
            "byteLength" : 1416,
            "byteOffset" : 15200
        },
        {
            "buffer" : 0,
            "byteLength" : 768,
            "byteOffset" : 16616
        },
        {
            "buffer" : 0,
            "byteLength" : 768,
            "byteOffset" : 17384
        },
        {
            "buffer" : 0,
            "byteLength" : 512,
            "byteOffset" : 18152
        },
        {
            "buffer" : 0,
            "byteLength" : 360,
            "byteOffset" : 18664
        },
        {
            "buffer" : 0,
            "byteLength" : 192,
            "byteOffset" : 19024
        },
        {
            "buffer" : 0,
            "byteLength" : 192,
            "byteOffset" : 19216
        },
        {
            "buffer" : 0,
            "byteLength" : 128,
            "byteOffset" : 19408
        },
        {
            "buffer" : 0,
            "byteLength" : 48,
            "byteOffset" : 19536
        },
        {
            "buffer" : 0,
            "byteLength" : 48,
            "byteOffset" : 19584
        },
        {
            "buffer" : 0,
            "byteLength" : 48,
            "byteOffset" : 19632
        },
        {
            "buffer" : 0,
            "byteLength" : 32,
            "byteOffset" : 19680
        },
        {
            "buffer" : 0,
            "byteLength" : 12,
            "byteOffset" : 19712
        },
        {
            "buffer" : 0,
            "byteLength" : 1920646,
            "byteOffset" : 19724
        },
        {
            "buffer" : 0,
            "byteLength" : 480,
            "byteOffset" : 1940372
        },
        {
            "buffer" : 0,
            "byteLength" : 480,
            "byteOffset" : 1940852
        },
        {
            "buffer" : 0,
            "byteLength" : 320,
            "byteOffset" : 1941332
        },
        {
            "buffer" : 0,
            "byteLength" : 156,
            "byteOffset" : 1941652
        }
    ],
    "samplers" : [
        {
            "magFilter" : 9729,
            "minFilter" : 9987
        }
    ],
    "buffers" : [
        {
            "byteLength" : 1941808,
            "uri" : "data:application/octet-stream;base64,"
        }
    ]
}
